<svg width="44" height="44" viewBox="0 0 44 44" fill="none" xmlns="http://www.w3.org/2000/svg">
<path d="M33.8212 34.243L44 24.8931L41.2107 23.6278L43.1629 15.4701L36.0506 17.0169L35.1438 13.4301L30.29 18.538C29.8008 19.0533 28.9438 18.634 29.0416 17.9278L30.6813 6.11661L27.6502 7.52357C26.8865 7.87805 25.9806 7.56925 25.5865 6.82009L22 0L18.4135 6.82192C18.0194 7.57108 17.1135 7.87988 16.3498 7.5254L13.3187 6.11844L14.9584 17.9296C15.0562 18.6358 14.1992 19.0551 13.71 18.5399L8.85617 13.4319L7.94935 17.0187L0.837059 15.472L2.78929 23.6296L0 24.8949L10.1788 34.2448C10.6499 34.6779 10.8374 35.3421 10.6616 35.9597L9.83183 38.8887L19.9644 37.5722C20.6112 37.4881 21.1783 38.008 21.1566 38.6658L20.7797 44H23.2203L22.8434 38.6658C22.8217 38.0089 23.3888 37.4881 24.0356 37.5722L34.1682 38.8887L33.3384 35.9597C33.1635 35.3421 33.3501 34.6769 33.8212 34.2448V34.243Z" fill="#D9D9D9" fill-opacity="0.4"/>
</svg>
