<svg width="124" height="27" viewBox="0 0 124 27" fill="none" xmlns="http://www.w3.org/2000/svg">
<path d="M2.4797 10.2324L0 24.2244H4.7975L5.25765 21.6659L7.75653 19.6677L11.7935 24.2244H17.9906L11.4143 16.7896L19.6693 10.2324H12.8736L6.3569 15.3899L7.2772 10.2324H2.4797Z" fill="white"/>
<path d="M25.4064 10.2324H20.6089L19.0495 19.0286H23.847L25.4064 10.2324ZM18.1313 24.2244H28.7446L30.2444 15.7287L36.1412 24.2244H41.9378L44.4175 10.2324H39.62L38.0819 18.9476L32.0232 10.2324H26.4268L24.648 20.2279H18.8322L18.1335 24.2266L18.1313 24.2244Z" fill="white"/>
<path d="M50.1541 24.4247H52.1736C54.3316 24.4247 56.1318 23.9454 57.4696 22.4456L57.5101 24.2244H60.5075L61.6259 17.908L61.8261 16.7491H52.9704L52.5698 19.0286H56.528C56.0679 19.8679 55.3286 20.2279 53.9098 20.2279H50.9125C48.7331 20.2279 48.2346 19.4291 48.6138 17.2306C48.993 15.0917 49.7727 14.1118 51.9521 14.1118H66.3765V10.2324H52.6721C47.9939 10.2324 44.7963 11.632 43.8163 17.2284C42.7959 22.9846 45.4759 24.4247 50.1519 24.4247H50.1541Z" fill="white"/>
<path d="M71.1611 19.4482C74.6591 19.4482 77.6373 19.1692 78.3978 14.8297C79.1371 10.6329 76.3996 10.2324 72.9016 10.2324H63.8264L63.1063 14.1096H72.0132C72.0835 14.1139 72.1517 14.1203 72.2156 14.1309C73.8219 14.3908 73.6855 16.6298 71.6319 16.698H62.725L61.3467 24.2244H66.1442L66.9835 19.4482H71.1611ZM74.0988 24.2244H91.8892L87.3729 10.2324H77.8837C79.0831 10.8119 79.7975 11.9516 79.397 14.2311H83.6747L85.5941 20.2279H76.798L74.0988 24.2266V24.2244Z" fill="#F80000"/>
<path d="M92.0894 24.2244H96.8869L97.7262 19.4482H100.366L102.485 24.2244H112.92L115.397 10.2324H110.6L108.821 20.2279H105.702L105.242 19.1883C107.181 18.7878 108.64 17.6886 109.141 14.8297C109.88 10.6329 107.142 10.2324 103.644 10.2324H94.5691L93.849 14.2311H103.845C104.164 14.2311 104.405 14.5101 104.345 14.8297C104.285 15.1492 103.966 15.4283 103.646 15.4283H93.6509L92.0915 24.2244H92.0894Z" fill="#F80000"/>
<path fill-rule="evenodd" clip-rule="evenodd" d="M18.8301 20.2278H23.7639L18.1313 24.2243L18.8301 20.2278Z" fill="#F80000"/>
<path fill-rule="evenodd" clip-rule="evenodd" d="M56.7535 5.89738C56.8725 5.8152 56.9925 5.73492 57.1134 5.65558L62.0534 2.39404L63.3106 3.45099C63.9387 3.97994 64.5319 4.53156 65.1478 5.06901C65.4708 5.35049 65.7948 5.63007 66.1197 5.91061L72.384 1.8103L71.481 6.96095H51.3752L52.2971 1.8103L55.0146 4.36437C55.6031 4.86971 56.1773 5.38354 56.7535 5.89738Z" fill="white"/>
<path d="M120.246 14L119.717 14.9981C119.675 15.077 119.594 15.1226 119.51 15.1226C119.477 15.1226 119.444 15.1156 119.413 15.1011L118.965 14.8952L119.207 16.6233C119.217 16.6948 119.16 16.7462 119.1 16.7462C119.073 16.7462 119.045 16.7359 119.023 16.7126L118.307 15.9652L118.173 16.49L117.124 16.2637L117.412 17.4573L117 17.6424L118.502 19.0104C118.571 19.0738 118.599 19.171 118.573 19.2613L118.451 19.6899L119.946 19.4973C119.953 19.4963 119.96 19.4959 119.966 19.4959C120.053 19.4959 120.125 19.568 120.122 19.6571L120.066 20.2826H120.426L120.371 19.6571C120.368 19.5678 120.44 19.4959 120.526 19.4959C120.533 19.4959 120.54 19.4963 120.546 19.4973L122.041 19.6899L121.919 19.2613C121.893 19.171 121.921 19.0737 121.99 19.0104L123.492 17.6424L123.081 17.4573L123.369 16.2637L122.319 16.49L122.185 15.9652L121.469 16.7126C121.447 16.7359 121.419 16.7462 121.393 16.7462C121.332 16.7462 121.275 16.6948 121.285 16.6233L121.527 14.8952L121.08 15.1011C121.048 15.1156 121.015 15.1226 120.982 15.1226C120.898 15.1226 120.817 15.0771 120.775 14.9981L120.246 14Z" fill="#F80000"/>
</svg>
