<svg width="1215" height="713" viewBox="0 0 1215 713" fill="none" xmlns="http://www.w3.org/2000/svg">
<path fill-rule="evenodd" clip-rule="evenodd" d="M399.454 626.577C403.627 618.785 407.842 611.087 412.17 603.338L588.095 288.224L684.224 320.189C732.288 336.171 779.086 354.43 826.734 371.282C851.686 380.096 876.708 388.765 901.73 397.434L1125.79 0.000450857L1217.61 328.296L140.213 821.758L62.0213 508.703L264.532 578.115C309.821 593.672 354.581 610.15 399.454 626.577Z" fill="#292D32"/>
<path fill-rule="evenodd" clip-rule="evenodd" d="M1100.55 470.01C1096.63 477.333 1092.66 484.569 1088.6 491.853L923.243 788.032L832.89 757.988C787.714 742.966 743.728 725.804 698.943 709.965C675.49 701.681 651.972 693.533 628.454 685.385L417.861 1058.94L331.551 750.368L1344.21 286.557L1417.71 580.801L1227.36 515.56C1184.8 500.938 1142.72 485.45 1100.55 470.01Z" fill="#292D32"/>
</svg>
