<svg width="28" height="28" viewBox="0 0 28 28" fill="none" xmlns="http://www.w3.org/2000/svg">
<path d="M14 4.16279C17.2042 4.16279 17.5835 4.17548 18.8495 4.23256C20.019 4.28584 20.6546 4.48119 21.0782 4.64609C21.6389 4.86427 22.0385 5.12431 22.4584 5.54419C22.8782 5.96406 23.1383 6.36364 23.3565 6.92431C23.5214 7.34673 23.7167 7.98224 23.77 9.15307C23.8283 10.419 23.8397 10.7983 23.8397 14.0025C23.8397 17.2068 23.8271 17.5861 23.77 18.852C23.7167 20.0216 23.5214 20.6571 23.3565 21.0808C23.1383 21.6414 22.8782 22.041 22.4584 22.4609C22.0385 22.8808 21.6389 23.1408 21.0782 23.359C20.6558 23.5239 20.0203 23.7192 18.8495 23.7725C17.5848 23.8296 17.2042 23.8423 14 23.8423C10.7958 23.8423 10.4165 23.8296 9.15053 23.7725C7.98097 23.7192 7.34545 23.5239 6.92177 23.359C6.36109 23.1408 5.96151 22.8808 5.54164 22.4609C5.12177 22.041 4.86173 21.6414 4.64355 21.0808C4.47864 20.6584 4.28329 20.0228 4.23002 18.852C4.17293 17.5861 4.16026 17.2068 4.16026 14.0025C4.16026 10.7983 4.17293 10.419 4.23002 9.15307C4.28329 7.98351 4.47864 7.34799 4.64355 6.92431C4.86173 6.36364 5.12177 5.96406 5.54164 5.54419C5.96151 5.12431 6.36109 4.86427 6.92177 4.64609C7.34418 4.48119 7.97971 4.28584 9.15053 4.23256C10.4165 4.17548 10.7958 4.16279 14 4.16279ZM14 2C10.7412 2 10.3328 2.01395 9.05285 2.0723C7.77547 2.13066 6.90275 2.33362 6.14038 2.63044C5.35138 2.93742 4.68161 3.34715 4.01438 4.01438C3.34715 4.68161 2.93742 5.35138 2.63044 6.14038C2.33361 6.90402 2.13065 7.77548 2.0723 9.05286C2.01395 10.3328 2 10.7412 2 14C2 17.2588 2.01395 17.6672 2.0723 18.9472C2.13065 20.2245 2.33361 21.0973 2.63044 21.8596C2.93742 22.6486 3.34715 23.3184 4.01438 23.9856C4.68161 24.6529 5.35138 25.0626 6.14038 25.3696C6.90402 25.6664 7.77547 25.8694 9.05285 25.9277C10.3328 25.9861 10.7412 26 14 26C17.2588 26 17.6672 25.9861 18.9471 25.9277C20.2245 25.8694 21.0972 25.6664 21.8596 25.3696C22.6486 25.0626 23.3184 24.6529 23.9856 23.9856C24.6529 23.3184 25.0626 22.6486 25.3696 21.8596C25.6664 21.096 25.8694 20.2245 25.9277 18.9472C25.9861 17.6672 26 17.2588 26 14C26 10.7412 25.9861 10.3328 25.9277 9.05286C25.8694 7.77548 25.6664 6.90275 25.3696 6.14038C25.0626 5.35138 24.6529 4.68161 23.9856 4.01438C23.3184 3.34715 22.6486 2.93742 21.8596 2.63044C21.096 2.33362 20.2245 2.13066 18.9471 2.0723C17.6672 2.01395 17.2588 2 14 2Z" fill="#7B7982"/>
<path d="M14 7.83765C10.5966 7.83765 7.83765 10.5966 7.83765 14C7.83765 17.4034 10.5966 20.1624 14 20.1624C17.4034 20.1624 20.1624 17.4034 20.1624 14C20.1624 10.5966 17.4034 7.83765 14 7.83765ZM14 18.0009C11.7903 18.0009 10.0004 16.2097 10.0004 14.0013C10.0004 11.7928 11.7916 10.0017 14 10.0017C16.2085 10.0017 17.9996 11.7928 17.9996 14.0013C17.9996 16.2097 16.2085 18.0009 14 18.0009Z" fill="#7B7982"/>
<path d="M20.4058 9.03385C21.201 9.03385 21.8456 8.38925 21.8456 7.5941C21.8456 6.79895 21.201 6.15436 20.4058 6.15436C19.6107 6.15436 18.9661 6.79895 18.9661 7.5941C18.9661 8.38925 19.6107 9.03385 20.4058 9.03385Z" fill="#7B7982"/>
</svg>
