<svg width="28" height="28" viewBox="0 0 28 28" fill="none" xmlns="http://www.w3.org/2000/svg">
<path d="M27.4486 2.90804C27.3553 2.62551 27.2438 2.54867 27.0709 2.4801C26.6909 2.32997 26.048 2.55576 26.048 2.55576C26.048 2.55576 3.2661 11.0637 1.96561 12.0059C1.68571 12.2092 1.59128 12.3263 1.54463 12.4646C1.31935 13.136 2.02022 13.4316 2.02022 13.4316L7.89235 15.42C7.89235 15.42 8.11079 15.4531 8.1893 15.4022C9.52506 14.5251 21.6288 6.58454 22.3263 6.31737C22.4367 6.28309 22.5175 6.32209 22.4958 6.4013C22.2159 7.42032 11.7039 17.1282 11.7039 17.1282C11.7039 17.1282 11.6641 17.179 11.6379 17.2405L11.6243 17.2322L11.0759 23.2836C11.0759 23.2836 10.846 25.1373 12.6312 23.2836C13.8896 21.9762 15.1082 20.8815 15.7181 20.3483C17.7365 21.7965 19.9096 23.3983 20.8472 24.2365C21.3182 24.6573 21.7119 24.7259 22.0362 24.7129C22.9259 24.6786 23.1751 23.6619 23.1751 23.6619C23.1751 23.6619 27.3269 6.302 27.4657 3.97552C27.4794 3.74736 27.4975 3.60314 27.4998 3.44592C27.5021 3.2284 27.4828 3.00971 27.4486 2.90804Z" fill="#7B7982"/>
</svg>
