<svg width="28" height="28" viewBox="0 0 28 28" fill="none" xmlns="http://www.w3.org/2000/svg">
<path fill-rule="evenodd" clip-rule="evenodd" d="M22.9625 5.20126C20.6122 2.84967 17.4874 1.55296 14.1566 1.55164C7.29581 1.55164 1.71176 7.13303 1.7091 13.9952C1.7091 16.1887 2.28172 18.329 3.37116 20.2156L1.60547 26.6646L8.20456 24.9347C10.0221 25.9259 12.0694 26.448 14.1526 26.4493H14.158C21.0188 26.4493 26.6028 20.8666 26.6055 14.0058C26.6055 10.6803 25.3127 7.55419 22.9625 5.20259V5.20126ZM14.158 24.3475H14.154C12.2979 24.3475 10.4764 23.848 8.88878 22.906L8.51147 22.6815L4.59612 23.7085L5.64171 19.8914L5.39593 19.4995C4.35963 17.8521 3.81358 15.9495 3.81358 13.9952C3.81623 8.29288 8.45699 3.65346 14.1646 3.65346C16.9281 3.65346 19.5254 4.73227 21.4785 6.68662C23.4315 8.64097 24.5063 11.2397 24.5063 14.0031C24.5036 19.7068 19.8629 24.3462 14.1606 24.3462L14.158 24.3475ZM19.8323 16.6005C19.5215 16.4451 17.9923 15.6931 17.7066 15.5895C17.421 15.4858 17.2137 15.434 17.0064 15.7449C16.7992 16.0558 16.2026 16.756 16.022 16.9646C15.8399 17.1718 15.6593 17.1984 15.3484 17.0429C15.0375 16.8875 14.0357 16.5593 12.8466 15.4991C11.922 14.6741 11.2975 13.6564 11.1168 13.3455C10.9348 13.0346 11.0969 12.8659 11.2537 12.7104C11.3932 12.5709 11.5645 12.3477 11.72 12.1657C11.8754 11.9837 11.9273 11.8548 12.0309 11.6476C12.1345 11.4403 12.0827 11.2583 12.0056 11.1028C11.9273 10.9474 11.3055 9.41686 11.0464 8.79376C10.794 8.18792 10.5376 8.26896 10.3462 8.25966C10.1656 8.25036 9.95696 8.24904 9.74971 8.24904C9.54245 8.24904 9.20499 8.32743 8.92067 8.63831C8.63502 8.9492 7.83255 9.70119 7.83255 11.2317C7.83255 12.7622 8.94724 14.241 9.10268 14.4482C9.25813 14.6555 11.2962 17.7963 14.4157 19.1434C15.1584 19.4636 15.7376 19.6549 16.1894 19.7984C16.9347 20.0349 17.6123 20.0017 18.149 19.922C18.7469 19.833 19.9891 19.17 20.2482 18.4433C20.5073 17.7165 20.5073 17.0948 20.4302 16.9646C20.3531 16.8344 20.1446 16.7573 19.8337 16.6019L19.8323 16.6005Z" fill="#7B7982"/>
</svg>
