<svg width="28" height="28" viewBox="0 0 28 28" fill="none" xmlns="http://www.w3.org/2000/svg">
<path d="M27.996 13.912C27.996 12.22 26.6247 10.8487 24.9327 10.8487C24.1065 10.8487 23.3582 11.1773 22.8078 11.7079C20.7133 10.1967 17.8281 9.22004 14.6144 9.10785L16.0107 2.54174L20.5707 3.51049C20.6262 4.66929 21.5751 5.59449 22.7484 5.59449C23.9217 5.59449 24.9367 4.61519 24.9367 3.40623C24.9367 2.19727 23.9574 1.21796 22.7484 1.21796C21.8892 1.21796 21.1528 1.71817 20.7951 2.43879L15.7032 1.35654C15.562 1.32619 15.4129 1.3539 15.2914 1.43309C15.17 1.51228 15.0842 1.63634 15.0539 1.77888L13.4952 9.10521C10.2339 9.19628 7.30254 10.1729 5.18159 11.7013C4.63122 11.1734 3.88555 10.8474 3.0633 10.8474C1.37129 10.8474 0 12.2187 0 13.9107C0 15.1553 0.744375 16.2243 1.81079 16.7048C1.76328 17.0096 1.73819 17.3185 1.73819 17.6313C1.73819 22.3444 7.22467 26.1665 13.994 26.1665C20.7634 26.1665 26.2499 22.3457 26.2499 17.6313C26.2499 17.3198 26.2248 17.0136 26.1773 16.71C27.2503 16.2336 28 15.1605 28 13.9107L27.996 13.912ZM6.98977 16.1016C6.98977 14.8953 7.9717 13.9133 9.17933 13.9133C10.387 13.9133 11.3663 14.8953 11.3663 16.1016C11.3663 17.3079 10.3843 18.2899 9.17933 18.2899C7.97434 18.2899 6.98977 17.3079 6.98977 16.1016ZM19.1928 21.8837C17.6988 23.3751 14.8374 23.4913 13.9954 23.4913C13.1533 23.4913 10.2906 23.3751 8.79924 21.8837C8.57751 21.662 8.57751 21.303 8.79924 21.0813C9.02097 20.8595 9.37997 20.8595 9.6017 21.0813C10.5427 22.0223 12.5568 22.3562 13.9954 22.3562C15.434 22.3562 17.448 22.0223 18.3917 21.08C18.6134 20.8582 18.9724 20.8595 19.1942 21.08C19.4159 21.3017 19.4159 21.6607 19.1942 21.8824L19.1928 21.8837ZM18.8075 18.2899C17.6011 18.2899 16.6192 17.3079 16.6192 16.1016C16.6192 14.8953 17.6011 13.912 18.8075 13.912C20.0138 13.912 20.9957 14.894 20.9957 16.1016C20.9957 17.3092 20.0138 18.2899 18.8075 18.2899Z" fill="#7B7982"/>
</svg>
