<svg width="28" height="28" viewBox="0 0 28 28" fill="none" xmlns="http://www.w3.org/2000/svg">
<path d="M15.074 11.9287C15.4346 11.5243 15.7307 11.113 16.1009 10.7648C17.2388 9.69273 18.5837 9.15122 20.1548 9.16493C21.0185 9.17178 21.8712 9.23485 22.7047 9.47476C24.609 10.0259 25.7153 11.3365 26.2431 13.1955C26.6393 14.5898 26.712 16.0224 26.7148 17.4592C26.7202 20.489 26.7065 23.5201 26.712 26.5499C26.712 26.8337 26.6325 26.9077 26.3542 26.9064C24.7927 26.894 23.2312 26.8926 21.671 26.9064C21.3968 26.9091 21.3365 26.8241 21.3379 26.5636C21.3461 23.6805 21.3489 20.796 21.3393 17.9129C21.3365 17.1904 21.2913 16.468 21.0884 15.766C20.7155 14.4719 19.7887 13.8124 18.4329 13.8837C16.5821 13.9811 15.6183 14.8982 15.3825 16.7805C15.3263 17.2302 15.2989 17.6799 15.3002 18.1323C15.303 20.9372 15.2975 23.7409 15.3071 26.5458C15.3071 26.8255 15.2385 26.9077 14.952 26.905C13.3795 26.8913 11.8071 26.8926 10.2346 26.905C9.98233 26.9064 9.90967 26.8392 9.90967 26.5842C9.91652 21.0318 9.91652 15.4795 9.90967 9.92852C9.90967 9.65433 9.99879 9.5899 10.2593 9.59265C11.7522 9.60361 13.2466 9.60498 14.7395 9.59265C15.0137 9.5899 15.085 9.67902 15.0795 9.9395C15.0644 10.603 15.074 11.2666 15.074 11.9301V11.9287Z" fill="#7B7982"/>
<path d="M6.5207 18.2736C6.5207 21.0196 6.51658 23.767 6.52755 26.513C6.52755 26.8187 6.45352 26.9105 6.13683 26.9064C4.57669 26.8886 3.01518 26.8927 1.45504 26.9037C1.20553 26.9051 1.13013 26.8434 1.13013 26.5843C1.13698 21.0237 1.13698 15.4618 1.13013 9.90119C1.13013 9.67087 1.18634 9.58861 1.43036 9.58998C3.01381 9.59958 4.59726 9.60369 6.17933 9.58861C6.48368 9.58587 6.5248 9.70377 6.5248 9.96425C6.51658 12.7336 6.5207 15.5029 6.5207 18.2722V18.2736Z" fill="#7B7982"/>
<path d="M6.95116 4.08009C6.95253 5.80474 5.55279 7.20996 3.83225 7.20996C2.13365 7.20996 0.721564 5.80473 0.71608 4.1075C0.710597 2.39107 2.1213 0.977634 3.83773 0.979005C5.54319 0.980376 6.94841 2.38148 6.94979 4.08009H6.95116Z" fill="#7B7982"/>
</svg>
