<svg width="202" height="62" viewBox="0 0 202 62" fill="none" xmlns="http://www.w3.org/2000/svg">
<path fill-rule="evenodd" clip-rule="evenodd" d="M33.094 29.0573L28.8264 32.4693L31.87 35.9101L32.5199 32.1985H32.5344L33.0904 29.0573H33.094ZM123.949 43.0264L125.848 44.124C140.576 44.124 155.306 44.124 170.034 44.124L171.456 36.0256H171.565L174.977 44.124H197.199L201.893 17.63C200.691 16.7888 199.687 16.0594 198.535 15.1568H188.076L187.628 17.6806C187.227 17.3484 186.747 17.009 186.386 16.7924C185.216 16.0847 183.822 15.6948 182.277 15.4854C180.815 15.2182 179.154 15.1568 177.392 15.1568H160.917C160 20.2476 159.105 25.2952 158.206 30.3715C156.57 25.3024 155.036 20.0996 153.209 15.1279H91.0031C87.2229 15.1279 84.1287 15.6587 81.688 17.0668L81.8216 16.3194L80.038 15.1604H67.7514L65.9208 25.6345L58.8984 15.1568H38.0079L35.8127 15.1604H23.212L18.4173 18.9551L18.67 17.5289C17.576 16.7635 16.5037 16.0161 15.4133 15.2507L15.2942 15.1604H4.83087C3.31085 24.2662 1.61029 33.3466 0 42.4343L0.0794314 42.474C1.18064 43.0228 2.28185 43.5752 3.38667 44.124H13.9474L14.8934 38.8526L16.5181 37.5529L22.2191 44.1818C32.9965 44.1204 43.7667 44.124 54.5441 44.124L56.3097 34.1265L61.9926 42.3115L63.1949 44.1132C67.7586 44.1132 72.3331 44.124 76.904 44.124L77.6081 40.1524C77.9294 40.6254 78.2977 41.0551 78.7093 41.4486C81.0706 43.7088 84.6486 44.4634 89.1148 44.4634H92.5376C94.5667 44.4634 96.4586 44.2251 98.2097 43.6185C98.6755 43.4561 99.1268 43.2719 99.5637 43.0589L99.5889 44.124H117.934L119.357 36.0256H124.718C126.133 36.0256 127.505 35.9967 128.816 35.8631L123.949 43.0264ZM139.063 32.0974H144.562L143.074 27.4434L139.066 32.0974H139.063Z" fill="black"/>
<path d="M5.94239 16.1826L1.73975 39.8965H9.87063L10.6505 35.5603L14.8856 32.1736L21.7276 39.8965H32.2306L21.0849 27.2958L35.0757 16.1826H23.5581L12.5135 24.9237L14.0733 16.1826H5.94239Z" fill="#A9A9A9"/>
<path d="M44.7992 16.1826H36.6683L34.0254 31.0905H42.1563L44.7992 16.1826ZM32.4692 39.8965H50.4568L52.9986 25.4978L62.9926 39.8965H72.8168L77.0194 16.1826H68.8885L66.2817 30.9533L56.0134 16.1826H46.5286L43.5138 33.1232H33.6571L32.4728 39.9001L32.4692 39.8965Z" fill="#A9A9A9"/>
<path d="M86.7419 40.2359H90.1647C93.8222 40.2359 96.8731 39.4235 99.1405 36.8817L99.2091 39.8965H104.289L106.185 29.1913L106.524 27.2272H91.5151L90.8363 31.0904H97.5446C96.7648 32.513 95.5119 33.1232 93.1073 33.1232H88.0273C84.3337 33.1232 83.4889 31.7692 84.1315 28.0432C84.7742 24.4182 86.0957 22.7574 89.7892 22.7574H114.236V16.1826H91.0096C83.0809 16.1826 77.6615 18.5547 76.0007 28.0396C74.2712 37.7952 78.8132 40.2359 86.7383 40.2359H86.7419Z" fill="#A9A9A9"/>
<path d="M122.345 31.8017C128.274 31.8017 133.321 31.3287 134.61 23.9741C135.863 16.8614 131.224 16.1826 125.295 16.1826H109.914L108.694 22.7538H123.79C123.909 22.761 124.024 22.7718 124.133 22.7899C126.855 23.2303 126.624 27.025 123.143 27.1405H108.048L105.712 39.8965H113.843L115.265 31.8017H122.345ZM127.324 39.8965H157.476L149.821 16.1826H133.739C135.772 17.1647 136.982 19.0963 136.304 22.9596H143.554L146.807 33.1232H131.899L127.324 39.9001V39.8965Z" fill="#7B7982"/>
<path d="M157.815 39.8965H165.946L167.368 31.8017H171.842L175.434 39.8965H193.119L197.318 16.1826H189.187L186.172 33.1232H180.886L180.106 31.3612C183.392 30.6825 185.865 28.8194 186.714 23.9741C187.966 16.8614 183.327 16.1826 177.398 16.1826H162.018L160.797 22.9596H177.738C178.279 22.9596 178.687 23.4325 178.586 23.9741C178.485 24.5157 177.944 24.9887 177.402 24.9887H160.461L157.819 39.8965H157.815Z" fill="#7B7982"/>
<path fill-rule="evenodd" clip-rule="evenodd" d="M33.6535 33.124H42.0155L32.4692 39.8974L33.6535 33.124Z" fill="#7B7982"/>
<path fill-rule="evenodd" clip-rule="evenodd" d="M98.0056 7.68725C98.0168 7.68085 98.0264 7.67285 98.0376 7.66644L106.975 1.76413L109.625 3.9909C110.687 4.88577 111.706 5.83188 112.751 6.74436C113.126 7.07093 113.5 7.3959 113.876 7.72087L125.673 0L126.59 1.33831L124.776 12.8132H88.8568L87.7266 11.5437L89.774 0.0992515L95.5851 5.55973C96.3999 6.2593 97.2036 6.97167 98.004 7.68725H98.0056Z" fill="black"/>
<path fill-rule="evenodd" clip-rule="evenodd" d="M97.9267 8.83505C98.1284 8.69578 98.3317 8.55971 98.5366 8.42524L106.909 2.89752L109.04 4.68887C110.104 5.58534 111.11 6.52023 112.153 7.43111C112.701 7.90817 113.25 8.38202 113.801 8.85747L124.417 1.9082L122.887 10.6376H88.8115L90.3739 1.9082L94.9796 6.23688C95.9769 7.09333 96.9502 7.96419 97.9267 8.83505Z" fill="#A9A9A9"/>
<path d="M44.4457 58.5996H41.4116L42.9888 48.655H50.0062C53.2676 48.655 54.3235 49.8847 54.3235 51.6223C54.3235 53.2263 53.5349 55.2847 49.525 55.2847H44.9804L44.4457 58.5996ZM45.3146 53.0525H49.5116C50.6344 53.0525 51.0889 52.5446 51.0889 51.8362C51.0889 51.2213 50.6745 50.9139 49.8324 50.9139H45.6621L45.3146 53.0525ZM63.9511 54.5362L62.5877 50.807L60.2753 54.5362H63.9511ZM65.4482 58.5996L64.7798 56.7818H58.8852L57.7625 58.5996H54.6213L60.9036 48.655H64.8199L68.6026 58.5996H65.4482ZM75.6585 52.8654H80.2833C81.2992 52.8654 81.6734 52.3174 81.6734 51.7827C81.6734 51.2614 81.3794 50.9139 80.564 50.9139H75.9793L75.6585 52.8654ZM75.3244 55.0709L74.763 58.5996H71.7288L73.306 48.655H81.1922C84.1195 48.655 84.9348 49.7644 84.9348 51.0609C84.9348 52.5981 83.6249 53.3065 82.7427 53.5471C83.6383 53.8278 84.4536 54.456 84.2398 55.7392L83.9725 57.41C83.8655 58.1184 83.9457 58.3724 83.9858 58.5328L83.9725 58.5996H80.8848C80.8313 58.4927 80.7912 58.3456 80.8581 57.9313L81.0318 56.8352C81.2056 55.6724 80.7912 55.0709 79.2407 55.0709H75.3244ZM91.1055 58.5996L92.3085 51.0075H88.205L88.5659 48.655H99.8605L99.4863 51.0075H95.3828L94.1798 58.5996H91.1055ZM103.597 48.655H106.979L112.058 55.0441L113.061 48.655H116.055L114.477 58.5996H111.497L106.07 51.8897L105.014 58.5996H102.02L103.597 48.655ZM120.211 48.655H130.396L130.036 50.9139H122.844L122.617 52.3842H129.648L129.287 54.6565H122.256L121.989 56.2872H129.3L128.94 58.5996H118.634L120.211 48.655ZM136.815 52.8654H141.44C142.456 52.8654 142.83 52.3174 142.83 51.7827C142.83 51.2614 142.536 50.9139 141.721 50.9139H137.136L136.815 52.8654ZM136.481 55.0709L135.92 58.5996H132.885L134.463 48.655H142.349C145.276 48.655 146.091 49.7644 146.091 51.0609C146.091 52.5981 144.782 53.3065 143.899 53.5471C144.795 53.8278 145.61 54.456 145.396 55.7392L145.129 57.41C145.022 58.1184 145.102 58.3724 145.142 58.5328L145.129 58.5996H142.041C141.988 58.4927 141.948 58.3456 142.015 57.9313L142.188 56.8352C142.362 55.6724 141.948 55.0709 140.397 55.0709H136.481ZM154.996 58.7734H154.127C149.088 58.7734 148.714 56.4877 148.874 55.0709H152.015C152.015 55.6991 152.216 56.6481 154.715 56.6481H154.876C157.656 56.6481 157.843 55.9664 157.843 55.4719C157.843 54.9238 157.549 54.6565 155.611 54.5897L153.953 54.5496C150.492 54.4827 149.529 53.1728 149.529 51.6491C149.529 51.4486 149.529 51.3283 149.569 51.1278C149.783 49.7644 150.745 48.4812 155.197 48.4812H156.052C160.65 48.4812 161.532 50.1119 161.318 51.756H158.191C158.15 51.3684 158.03 50.553 155.517 50.553H155.33C152.831 50.553 152.697 51.0609 152.697 51.4486C152.697 51.8362 152.884 52.2372 154.689 52.2773L156.293 52.304C159.821 52.3709 161.091 53.2263 161.091 55.0976C161.091 55.3516 161.064 55.6456 161.024 55.8461C160.744 57.2897 159.861 58.7734 154.996 58.7734Z" fill="#A9A9A9"/>
</svg>
