<svg width="297" height="70" viewBox="0 0 297 70" fill="none" xmlns="http://www.w3.org/2000/svg">
<g clip-path="url(#clip0_287_307)">
<path d="M114.506 28.0331C115.34 27.3941 115.588 27.1101 116.393 26.3351C117.192 25.5719 117.807 24.4419 118.257 23.4539C118.724 22.4541 118.949 21.1525 118.949 19.9988C118.949 16.7035 117.742 14.2246 115.34 12.5503C112.92 10.8997 110.524 10.0596 106.466 10.0596H90.7344V49.154H106.708C109.743 49.154 112.352 48.6866 114.547 47.7341C116.73 46.7875 118.422 45.4504 119.611 43.7111C120.807 41.9835 121.398 39.9128 121.398 37.5345C121.398 35.1562 120.765 33.1388 119.523 31.4112C118.257 29.66 116.6 28.7963 114.512 28.039L114.506 28.0331ZM101.005 17.727H104.957C106.537 17.727 107.749 18.0406 108.584 18.6677C109.424 19.2948 109.832 20.1822 109.832 21.3536C109.832 22.1464 109.643 22.8209 109.252 23.377C108.885 23.9331 108.341 24.365 107.637 24.6608C106.951 24.9625 106.111 25.1045 105.123 25.1045H101.011V17.7329L101.005 17.727ZM109.311 40.2146C108.412 40.8299 107.081 41.1552 105.306 41.1552H101.005V33.3162H105.732C107.347 33.3162 108.578 33.6357 109.418 34.2983C110.258 34.9432 110.666 36.3217 110.666 37.4754C110.666 38.629 110.222 39.5874 109.305 40.2146H109.311Z" fill="white"/>
<path d="M200.953 32.1565C199.811 31.8961 198.42 31.6536 197.385 31.2513C196.87 30.9969 196.646 30.7957 196.657 30.2751C196.693 28.9794 198.503 28.9735 199.414 28.9262C202.609 28.9084 204.692 29.5119 207.437 30.9436L209.436 23.714C203.455 20.8801 193.681 19.7915 188.966 25.4356C186.481 28.4174 186.819 33.8189 189.795 36.2031C191.51 37.7 195.054 38.8063 198.639 39.4985C200.373 39.8416 200.615 39.9954 201.189 40.2439C201.757 40.4865 202.088 40.8592 202.077 41.3858C202.023 42.6932 200.16 42.8293 198.758 42.8057C195.687 42.7347 192.185 41.3207 189.511 39.5576L186.582 46.1542C189.57 48.6213 194.794 50.3193 199.686 50.3311C205.567 50.3429 210.981 47.8463 211.448 41.4094C211.696 34.7951 204.307 32.9137 200.947 32.1505H200.958L200.953 32.1565Z" fill="white"/>
<path d="M146.24 23.4063C143.974 22.0988 141.359 21.4243 138.401 21.4243C136.188 21.4243 134.147 21.8325 132.284 22.6135C130.432 23.4122 128.835 24.4771 127.492 25.8201C126.154 27.1631 125.119 28.7072 124.391 30.4406C123.664 32.1741 123.291 33.9963 123.291 35.9072C123.291 38.5281 123.918 40.936 125.208 43.1309C126.48 45.3259 128.261 47.0771 130.544 48.4082C132.81 49.7157 135.443 50.3724 138.407 50.3724C140.637 50.3724 142.661 49.9819 144.507 49.201C146.335 48.4023 147.944 47.3374 149.281 45.9944C150.642 44.6514 151.683 43.1073 152.423 41.3561C153.15 39.6226 153.523 37.8004 153.523 35.9072C153.523 33.2863 152.878 30.8784 151.588 28.6835C150.316 26.4886 148.536 24.7374 146.252 23.4063H146.24Z" fill="white"/>
<path d="M84.4979 41.9122C83.7762 41.4981 82.9479 41.291 82.0013 41.291C81.2973 41.291 80.6465 41.4153 80.0549 41.6637C79.4692 41.9122 78.9544 42.2435 78.5285 42.6695C78.1025 43.0895 77.7771 43.5747 77.5405 44.119C77.3097 44.6633 77.1914 45.2371 77.1914 45.8347C77.1914 46.657 77.3866 47.4143 77.8008 48.1006C78.209 48.7869 78.771 49.3371 79.4987 49.7571C80.2205 50.1713 81.0547 50.3724 82.0013 50.3724C82.7112 50.3724 83.3502 50.2541 83.9418 50.0056C84.5216 49.7571 85.0363 49.4258 85.4623 48.9999C85.8942 48.5739 86.2255 48.0947 86.4621 47.5445C86.6929 47.0002 86.8112 46.4263 86.8112 45.8347C86.8112 45.0123 86.61 44.255 86.1959 43.5688C85.7877 42.8825 85.2256 42.3323 84.4979 41.9122Z" fill="white"/>
<path d="M184.157 28.6835C182.885 26.4886 181.104 24.7374 178.82 23.4063C176.555 22.0988 173.946 21.4243 170.958 21.4243C168.763 21.4243 166.722 21.8325 164.858 22.6135C163.006 23.4122 161.409 24.4771 160.066 25.8201C158.729 27.1631 157.694 28.7072 156.942 30.4406C156.232 32.1741 155.86 33.9963 155.86 35.9072C155.86 38.5281 156.487 40.936 157.776 43.1309C159.048 45.3259 160.829 47.0771 163.113 48.4082C165.379 49.7157 167.994 50.3724 170.952 50.3724C173.2 50.3724 175.223 49.9819 177.069 49.201C178.897 48.4023 180.507 47.3374 181.844 45.9944C183.204 44.6514 184.246 43.1073 184.985 41.3561C185.701 39.6226 186.086 37.8004 186.086 35.9072C186.086 33.2863 185.441 30.8784 184.151 28.6835H184.163H184.157Z" fill="white"/>
<path d="M55.2781 22.2113C54.0712 21.6966 52.7401 21.4067 51.3379 21.4067C48.6815 21.4067 46.2677 22.4362 44.4692 24.1223C44.0196 24.5423 43.6113 25.0038 43.2445 25.4948C42.1855 24.0631 40.7538 22.9154 39.0913 22.2113C37.8844 21.6966 36.5533 21.4067 35.1511 21.4067C32.1043 21.4067 29.371 22.7616 27.531 24.9091V22.2113H18V49.1479H27.5251V33.7953C27.5251 31.7483 29.1817 30.0799 31.2287 30.0799C33.2757 30.0799 34.9322 31.7365 34.9322 33.7953V49.1479H44.4574V33.7953C44.4574 31.7483 46.1139 30.0799 48.1609 30.0799C50.2079 30.0799 51.8645 31.7365 51.8645 33.7953V49.1479H61.3896V31.488C61.3896 27.323 58.8634 23.7436 55.2604 22.2113H55.2722H55.2781Z" fill="white"/>
<path d="M257.553 26.2639C256.346 24.7198 254.808 23.5306 252.956 22.6905C251.092 21.8267 248.968 21.4126 246.566 21.4126C244.425 21.4126 242.455 21.7617 240.674 22.4657C238.881 23.1697 237.325 24.1518 236.006 25.4297C234.693 26.6958 233.675 28.2044 232.947 29.9556C232.225 31.6891 232.137 34.1206 232.137 36.1972C232.137 39.037 232.764 41.51 234 43.6399C235.231 45.746 236.953 47.4085 239.183 48.5858C241.413 49.7809 244.028 50.3666 246.998 50.3666C248.347 50.3666 249.761 50.2305 251.264 49.9347C252.773 49.6389 254.186 49.2425 255.518 48.7396C256.831 48.2545 257.902 47.6984 258.712 47.0772L255.778 40.3031C254.435 41.1728 253.045 41.8177 251.648 42.2081C250.252 42.6163 248.826 43.0009 247.217 43.0009C245.957 43.0009 245.229 42.8057 244.289 42.427C243.342 42.0366 242.603 41.5218 242.04 40.8474C241.502 40.1729 241.194 39.6878 241.147 38.8181H260.316C260.783 36.4102 260.499 33.6888 260.055 31.6418C259.588 29.5888 258.76 27.7844 257.547 26.2521L257.553 26.2639ZM241.254 32.5647C241.378 31.4228 241.928 30.5058 242.916 29.8314C243.886 29.1392 245.117 28.8138 246.584 28.8138C248.051 28.8138 249.187 29.1392 250.075 29.8314C250.938 30.5058 251.394 31.4228 251.406 32.5647H241.26H241.254Z" fill="white"/>
<path d="M223.405 39.2084V29.6714H230.83V22.1815H223.399V10H213.785L213.797 39.2084C213.797 45.3613 218.802 50.3664 224.949 50.3664C227.742 50.3664 229.854 50.0114 231.972 48.9583L229.227 41.7701C227.114 42.6161 223.446 42.5215 223.411 39.2084H223.405Z" fill="white"/>
<path d="M78.683 21.3237C69.9507 21.3237 64.5137 26.5063 64.5137 35.1499V49.1536H73.8436V35.1499C73.8436 32.4817 76.0148 29.9969 78.683 29.991C79.2687 29.991 79.4758 30.1744 79.4758 30.1744L81.8482 21.9272C80.7892 21.5071 79.7953 21.3237 78.6771 21.3237H78.683Z" fill="white"/>
<path d="M276.828 21.3237C268.095 21.3237 262.658 26.5063 262.658 35.1499V49.1536H271.988V35.1499C271.988 32.4817 274.159 29.9969 276.828 29.991C277.413 29.991 277.62 30.1744 277.62 30.1744L279.993 21.9272C278.934 21.5071 277.94 21.3237 276.822 21.3237H276.828Z" fill="white"/>
</g>
<defs>
<clipPath id="clip0_287_307">
<rect width="262" height="40.3664" fill="white" transform="translate(18 10)"/>
</clipPath>
</defs>
</svg>
