<svg width="297" height="70" viewBox="0 0 297 70" fill="none" xmlns="http://www.w3.org/2000/svg">
<g clip-path="url(#clip0_287_204)">
<path d="M127.083 23.5961V31.8412H120.186V5.33499H131.853C137.622 5.33499 141.524 8.57345 141.524 14.4866C141.524 20.3575 137.622 23.5961 131.853 23.5961H127.083ZM131.115 11.1637H127.08V17.812H131.115C133.63 17.812 134.758 16.4734 134.758 14.4891C134.758 12.4576 133.63 11.1637 131.115 11.1637ZM153.279 20.1414C153.279 18.6315 151.892 17.5512 149.115 17.5512C147.248 17.5512 145.342 18.0256 143.78 18.9321V13.4932C145.384 12.629 147.987 11.9833 150.761 11.9833C156.53 11.9833 159.826 14.7027 159.826 19.8385V31.8388H153.279V30.8453C152.628 31.4935 150.764 32.1839 148.681 32.1839C144.821 32.1839 141.524 30.0257 141.524 25.923C141.524 22.168 144.821 19.7515 149.027 19.7515C150.674 19.7515 152.498 20.2681 153.276 20.8318V20.1414H153.279ZM153.279 25.2798C152.845 24.4602 151.762 23.9412 150.547 23.9412C149.202 23.9412 147.857 24.5024 147.857 25.7964C147.857 27.1349 149.202 27.6963 150.547 27.6963C151.762 27.6963 152.845 27.1773 153.279 26.4023V25.2798ZM175.089 12.7109C174.784 12.5371 174.091 12.3657 173.225 12.3657C171.274 12.3657 169.754 12.8475 168.801 14.1414V12.7954H161.992V31.8388H168.801V20.4445C169.148 19.0637 170.406 18.2441 172.269 18.2441C173.355 18.2441 174.266 18.4155 175.089 18.8476V12.7109ZM187.205 17.6804H191.02V12.4154H187.205V7.06349H180.438V12.4154H177.055V17.6829H180.438V31.8412H187.205V17.6804ZM193.186 31.8412H199.995V20.0992C200.342 18.7607 201.47 17.9834 202.815 17.9834C204.549 17.9834 205.375 19.1481 205.375 20.745V31.8388H212.141V19.1059C212.141 14.7896 209.582 11.9833 205.245 11.9833C202.989 11.9833 201.081 12.8897 199.998 14.0992V12.4154H193.189V31.8412H193.186ZM220.897 23.6829C221.462 26.015 223.37 26.9636 225.885 26.9636C227.966 26.9636 229.57 26.5737 231.523 25.409V30.5448C230.004 31.6673 227.621 32.2709 224.802 32.2709C218.557 32.2709 214.304 28.5133 214.304 22.255C214.304 16.1679 218.382 11.9808 223.761 11.9808C229.832 11.9808 232.91 15.9097 232.91 21.6937V23.678H220.897V23.6829ZM220.985 19.8833H226.837C226.665 18.2441 225.667 17.1216 224.019 17.1216C222.544 17.1216 221.462 18.1125 220.985 19.8833ZM248.171 12.3285C247.867 12.1546 247.173 11.9833 246.308 11.9833C244.356 11.9833 242.837 12.8475 241.883 14.1414V12.4154H235.075V31.8412H241.883V20.4445C242.231 19.0637 243.488 18.2441 245.352 18.2441C246.438 18.2441 247.348 18.4155 248.171 18.8476V12.3285ZM134.024 59.224L140.833 49.7248V64.9237H147.687V38.4125H141.267L133.937 49.2057L126.648 38.4125H120.186V64.9211H126.995V49.7222L133.849 59.2216H134.024V59.224ZM161.51 53.2215C161.51 51.7091 160.123 50.6312 157.346 50.6312C155.482 50.6312 153.571 51.1056 152.012 52.012V46.5733C153.616 45.7089 156.218 45.0633 158.995 45.0633C164.764 45.0633 168.06 47.7826 168.06 52.921V64.9237H161.51V63.9302C160.859 64.5784 158.995 65.2688 156.912 65.2688C153.052 65.2688 149.756 63.1108 149.756 59.0079C149.756 55.2505 153.052 52.834 157.259 52.834C158.908 52.834 160.729 53.3531 161.51 53.9143V53.2215ZM161.51 58.3598C161.076 57.5403 159.991 57.0212 158.778 57.0212C157.433 57.0212 156.089 57.5825 156.089 58.8789C156.089 60.2174 157.433 60.7786 158.778 60.7786C159.993 60.7786 161.076 60.2597 161.51 59.4848V58.3598ZM179.588 50.7603H183.405V45.4929H179.588V40.1384H172.821V45.4929H169.437V50.7603H172.821V64.9211H179.588V50.7603ZM198.62 45.406C198.316 45.232 197.622 45.0607 196.754 45.0607C194.803 45.0607 193.283 45.925 192.33 47.2189V45.4929H185.521V64.9211H192.33V53.522C192.677 52.1411 193.935 51.3191 195.801 51.3191C196.886 51.3191 197.797 51.4929 198.62 51.925V45.406ZM207.603 45.4929H200.794V64.9211H207.603V45.4929ZM230.185 45.4929H223.157L220.079 50.1569L217.042 45.4929H209.711L216.219 55.0344L209.41 64.9211H216.436L219.777 59.8698L223.115 64.9211H230.488L223.634 54.9897L230.185 45.4929ZM81.2646 3.17188C63.5292 3.17188 49.1548 17.4792 49.1548 35.1318C49.1548 52.7819 63.5292 67.0918 81.2646 67.0918C98.9974 67.0918 113.374 52.7819 113.374 35.1318C113.372 17.4792 98.9974 3.17188 81.2646 3.17188ZM71.3165 61.0345C66.3811 63.4583 58.6313 57.8557 54.0078 48.5228C49.3843 39.1899 49.6363 29.6606 54.5717 27.2392C59.5071 24.8154 67.257 30.4182 71.8804 39.7511C76.5064 49.0814 76.2519 58.6107 71.3165 61.0345ZM62.0746 15.5793C62.0746 9.57429 70.6652 4.70667 81.2646 4.70667C91.8639 4.70667 100.455 9.57429 100.455 15.5793C100.455 21.5844 91.8639 26.452 81.2646 26.452C70.6652 26.4546 62.0746 21.5844 62.0746 15.5793ZM85.9555 61.2183C80.6907 57.5403 81.2845 47.6659 87.2803 39.1624C93.2762 30.6616 102.406 26.7525 107.671 30.4305C112.935 34.1086 112.341 43.983 106.346 52.4838C100.347 60.9897 91.2201 64.8988 85.9555 61.2183ZM80.294 17.74L74.5452 12.1025C74.5951 12.0627 74.6425 12.023 74.6875 11.9833C74.7324 11.9435 74.7747 11.9013 74.8173 11.8616C74.8572 11.8194 74.8971 11.7771 74.932 11.7349C74.9695 11.6927 75.0017 11.648 75.0342 11.6033H87.5174C87.5474 11.643 87.5823 11.6852 87.6147 11.7225C87.6496 11.7622 87.6871 11.802 87.7246 11.8392C87.7619 11.8765 87.8044 11.9162 87.8443 11.9535C87.8867 11.9907 87.929 12.028 87.9765 12.0627L82.2177 17.74C82.1404 17.7276 82.0631 17.7176 81.9857 17.7077C81.9084 17.6978 81.8284 17.6903 81.7486 17.6829C81.6688 17.6754 81.5889 17.6704 81.5067 17.668C81.4242 17.6655 81.3444 17.663 81.2621 17.663C81.1797 17.663 81.0975 17.6655 81.015 17.668C80.9328 17.6704 80.8529 17.6754 80.7705 17.6829C80.6907 17.6903 80.6108 17.6978 80.531 17.7077C80.4512 17.7176 80.3738 17.7276 80.294 17.74ZM90.4018 8.80689C90.035 8.80689 89.6856 8.83918 89.3639 8.89879C89.0419 8.95839 88.7426 9.04779 88.4805 9.15955C88.216 9.2713 87.9814 9.40789 87.7893 9.56436C87.5948 9.72082 87.4426 9.89715 87.3402 10.0909H75.159C75.0493 9.90459 74.8945 9.73323 74.6999 9.57925C74.5078 9.42777 74.2758 9.29614 74.0113 9.18686C73.7493 9.0776 73.4548 8.99316 73.1379 8.93355C72.8212 8.87395 72.4793 8.84414 72.1174 8.84414C71.6409 8.84414 71.1768 8.89879 70.7426 8.99812C70.3084 9.09746 69.9018 9.24151 69.545 9.4228C69.1856 9.60409 68.8763 9.82264 68.6393 10.066C68.3972 10.3119 68.2301 10.5851 68.1553 10.8756C68.0803 11.1687 68.1103 11.4518 68.2301 11.7126C68.3498 11.9758 68.5619 12.2142 68.8463 12.4179C69.1334 12.6215 69.4976 12.7879 69.9167 12.9021C70.3384 13.0189 70.8174 13.0834 71.3341 13.0834C71.4113 13.0834 71.4863 13.081 71.5635 13.0785C71.6409 13.076 71.7157 13.071 71.7907 13.0661C71.8655 13.0611 71.9403 13.0536 72.0152 13.0437C72.09 13.0363 72.1624 13.0263 72.2372 13.0164L77.8439 18.8649C77.7239 18.9792 77.6143 19.0984 77.5169 19.2226C77.4196 19.3493 77.3347 19.4809 77.2625 19.6175C77.1901 19.7541 77.1327 19.8982 77.0902 20.0447C77.0478 20.1912 77.0204 20.3452 77.0079 20.4992C76.9805 20.9139 77.0728 21.3137 77.2674 21.6813C77.4645 22.0538 77.7639 22.3941 78.1483 22.6796C78.5349 22.9702 79.0016 23.2062 79.5305 23.3725C80.0595 23.5389 80.6457 23.6308 81.2646 23.6308C81.8834 23.6308 82.4697 23.5389 82.9986 23.3725C83.5252 23.2086 83.9942 22.9702 84.3811 22.6796C84.7653 22.3916 85.0647 22.0538 85.2618 21.6813C85.4564 21.3137 85.5487 20.9139 85.5213 20.4992C85.5114 20.3426 85.4839 20.1912 85.439 20.0421C85.3965 19.8956 85.3366 19.7515 85.2642 19.6125C85.1919 19.476 85.1046 19.3418 85.0072 19.2151C84.91 19.0885 84.7978 18.9693 84.678 18.855L90.292 12.9692C90.3643 12.9791 90.4367 12.9891 90.5115 12.9965C90.5839 13.004 90.6588 13.0114 90.7336 13.0164C90.8084 13.0214 90.8832 13.0263 90.9582 13.0288C91.033 13.0313 91.1078 13.0338 91.1852 13.0338C91.7017 13.0338 92.1808 12.9692 92.6025 12.855C93.0241 12.7407 93.3859 12.5743 93.6729 12.3707C93.9574 12.1695 94.1694 11.9311 94.2892 11.6679C94.4089 11.4096 94.4364 11.1265 94.364 10.8334C94.2916 10.5429 94.1221 10.2697 93.8824 10.0238C93.6429 9.78042 93.3361 9.56187 92.9767 9.38306C92.6199 9.20426 92.2157 9.05772 91.7791 8.95839C91.34 8.86154 90.8758 8.80689 90.4018 8.80689Z" fill="white"/>
</g>
<defs>
<clipPath id="clip0_287_204">
<rect width="201.2" height="64.9032" fill="white" transform="translate(47.7998 2.54834)"/>
</clipPath>
</defs>
</svg>
