<svg width="20" height="20" viewBox="0 0 20 20" fill="none" xmlns="http://www.w3.org/2000/svg">
<path d="M19.9559 0.173924L19.4863 3.61608C18.2655 3.52178 17.3734 3.77326 16.8099 4.37052C16.2464 4.96779 15.9021 5.76939 15.7769 6.77532C15.6517 7.78125 15.6204 8.86576 15.683 10.0289H19.9559V19.9781H11.9266V8.14275C11.9266 5.25071 12.6466 3.08168 14.0865 1.63566C15.5578 0.189642 17.5142 -0.297604 19.9559 0.173924ZM8.02931 0.173924L7.55976 3.61608C6.33893 3.52178 5.44678 3.77326 4.88332 4.37052C4.31986 4.96779 3.97553 5.76939 3.85031 6.77532C3.7251 7.78125 3.6938 8.86576 3.7564 10.0289H8.02931V19.9781H0V8.14275C0 5.25071 0.719977 3.08168 2.15993 1.63566C3.63119 0.189642 5.58765 -0.297604 8.02931 0.173924Z" fill="white"/>
</svg>
