<svg width="24" height="24" viewBox="0 0 24 24" fill="none" xmlns="http://www.w3.org/2000/svg">
<path d="M14.5005 18.0005C13.8005 18.0005 13.2088 17.7588 12.7255 17.2755C12.2422 16.7922 12.0005 16.2005 12.0005 15.5005C12.0005 14.8005 12.2422 14.2088 12.7255 13.7255C13.2088 13.2422 13.8005 13.0005 14.5005 13.0005C15.2005 13.0005 15.7922 13.2422 16.2755 13.7255C16.7588 14.2088 17.0005 14.8005 17.0005 15.5005C17.0005 16.2005 16.7588 16.7922 16.2755 17.2755C15.7922 17.7588 15.2005 18.0005 14.5005 18.0005ZM5.00049 22.0005C4.45049 22.0005 3.97965 21.8047 3.58799 21.413C3.19632 21.0213 3.00049 20.5505 3.00049 20.0005V6.00049C3.00049 5.45049 3.19632 4.97966 3.58799 4.58799C3.97965 4.19632 4.45049 4.00049 5.00049 4.00049H6.00049V2.00049H8.00049V4.00049H16.0005V2.00049H18.0005V4.00049H19.0005C19.5505 4.00049 20.0213 4.19632 20.413 4.58799C20.8047 4.97966 21.0005 5.45049 21.0005 6.00049V20.0005C21.0005 20.5505 20.8047 21.0213 20.413 21.413C20.0213 21.8047 19.5505 22.0005 19.0005 22.0005H5.00049ZM5.00049 20.0005H19.0005V10.0005H5.00049V20.0005ZM5.00049 8.00049H19.0005V6.00049H5.00049V8.00049Z" fill="#BFBEBE"/>
</svg>
