<svg width="24" height="24" viewBox="0 0 24 24" fill="none" xmlns="http://www.w3.org/2000/svg">
<path d="M11.9988 12C12.5488 12 13.0196 11.8042 13.4113 11.4125C13.8029 11.0208 13.9988 10.55 13.9988 10C13.9988 9.45 13.8029 8.97917 13.4113 8.5875C13.0196 8.19583 12.5488 8 11.9988 8C11.4488 8 10.9779 8.19583 10.5863 8.5875C10.1946 8.97917 9.99878 9.45 9.99878 10C9.99878 10.55 10.1946 11.0208 10.5863 11.4125C10.9779 11.8042 11.4488 12 11.9988 12ZM11.9988 19.35C14.0321 17.4833 15.5404 15.7875 16.5238 14.2625C17.5071 12.7375 17.9988 11.3833 17.9988 10.2C17.9988 8.38333 17.4196 6.89583 16.2613 5.7375C15.1029 4.57917 13.6821 4 11.9988 4C10.3154 4 8.89461 4.57917 7.73628 5.7375C6.57795 6.89583 5.99878 8.38333 5.99878 10.2C5.99878 11.3833 6.49045 12.7375 7.47378 14.2625C8.45711 15.7875 9.96545 17.4833 11.9988 19.35ZM11.9988 22C9.31545 19.7167 7.31128 17.5958 5.98628 15.6375C4.66128 13.6792 3.99878 11.8667 3.99878 10.2C3.99878 7.7 4.80295 5.70833 6.41128 4.225C8.01961 2.74167 9.88211 2 11.9988 2C14.1154 2 15.9779 2.74167 17.5863 4.225C19.1946 5.70833 19.9988 7.7 19.9988 10.2C19.9988 11.8667 19.3363 13.6792 18.0113 15.6375C16.6863 17.5958 14.6821 19.7167 11.9988 22Z" fill="#BFBEBE"/>
</svg>
