<svg width="28" height="28" viewBox="0 0 28 28" fill="none" xmlns="http://www.w3.org/2000/svg">
<path d="M22.3303 8.54133C20.7767 7.82128 19.1156 7.29797 17.3789 7C17.1656 7.38199 16.9164 7.89578 16.7446 8.30449C14.8985 8.02946 13.0693 8.02946 11.2572 8.30449C11.0854 7.89578 10.8306 7.38199 10.6154 7C8.87681 7.29797 7.21376 7.8232 5.66019 8.54514C2.52664 13.2359 1.67719 17.8102 2.10192 22.3195C4.18025 23.8569 6.19441 24.7909 8.17457 25.4021C8.66349 24.7355 9.09953 24.0269 9.47518 23.2802C8.75975 23.0109 8.07453 22.6785 7.42707 22.2927C7.59884 22.1667 7.76686 22.0349 7.92918 21.8993C11.8782 23.729 16.1689 23.729 20.0707 21.8993C20.235 22.0349 20.403 22.1667 20.5728 22.2927C19.9235 22.6804 19.2364 23.0128 18.521 23.2821C18.8966 24.0269 19.3308 24.7374 19.8216 25.404C21.8036 24.7928 23.8197 23.8589 25.898 22.3195C26.3964 17.092 25.0467 12.5598 22.3303 8.54133ZM10.0132 19.5463C8.82772 19.5463 7.85555 18.45 7.85555 17.1149C7.85555 15.7799 8.80696 14.6817 10.0132 14.6817C11.2194 14.6817 12.1916 15.778 12.1708 17.1149C12.1727 18.45 11.2194 19.5463 10.0132 19.5463ZM17.9867 19.5463C16.8013 19.5463 15.8291 18.45 15.8291 17.1149C15.8291 15.7799 16.7805 14.6817 17.9867 14.6817C19.193 14.6817 20.1651 15.778 20.1444 17.1149C20.1444 18.45 19.193 19.5463 17.9867 19.5463Z" fill="#7B7982"/>
</svg>
