<svg width="135" height="135" viewBox="0 0 135 135" fill="none" xmlns="http://www.w3.org/2000/svg">
<rect width="135" height="135" rx="28.3613" fill="black"/>
<path fill-rule="evenodd" clip-rule="evenodd" d="M45.8818 46.4294C46.4844 46.0224 47.087 45.6233 47.7052 45.2164L72.6541 28.9229L79.0008 34.2054C82.1781 36.8427 85.1676 39.6052 88.2823 42.2895C89.91 43.6981 91.5535 45.0912 93.1891 46.492L124.829 26.0117L120.267 51.7431H18.7104L23.3668 26.0117L37.0934 38.7679C40.0672 41.2878 42.9628 43.8547 45.874 46.4294H45.8818Z" fill="white"/>
<path d="M93.0009 91.2872C105.851 91.2872 116.791 90.2621 119.585 74.3286C122.301 58.9117 112.245 57.4404 99.3946 57.4404H86.1767L67.8486 72.1296H100.13C101.304 72.1296 102.188 73.1547 101.969 74.3286C101.75 75.5025 100.576 76.5277 99.4025 76.5277H62.6835L60.4219 88.4308L75.1032 105.029L77.6622 91.2872H93.0087H93.0009Z" fill="#F80000"/>
<path d="M17.8017 57.4404L8.69238 108.841H26.3162L28.0066 99.4418L37.1863 92.0933L52.0163 108.841H74.7817L50.6233 81.5206L80.9485 57.4404H55.984L32.0447 76.379L35.4255 57.4404H17.8017Z" fill="white"/>
</svg>
