<svg width="30" height="30" viewBox="0 0 30 30" fill="none" xmlns="http://www.w3.org/2000/svg">
<circle cx="15" cy="15" r="14" stroke="white" stroke-width="2"/>
<path d="M14.9925 7.96412L15.7945 9.47662C16.0331 9.92664 16.4977 10.2062 17.007 10.2062C17.2061 10.2062 17.3989 10.1637 17.5803 10.0803L17.5884 10.0766L17.112 13.4803C17.0707 13.7752 17.1581 14.0719 17.3513 14.2944C17.5478 14.5201 17.8321 14.6496 18.131 14.6496C18.4109 14.6496 18.6732 14.5369 18.8689 14.3324L19.9175 13.2381L19.9581 13.3973L20.1323 14.0803L20.8216 13.9318L22.5551 13.5579L22.0399 15.692L21.8976 16.2818L22.4511 16.5309L22.5609 16.5803L19.2743 19.5739C18.8759 19.9368 18.72 20.4841 18.8682 21.0026L18.8978 21.1069L15.9079 20.7216C15.8586 20.7154 15.8084 20.7121 15.759 20.7121C15.4777 20.7121 15.2029 20.8171 14.9925 21.0029C14.7818 20.8171 14.5074 20.7121 14.2261 20.7121C14.1767 20.7121 14.1265 20.7154 14.0771 20.7216L11.0876 21.1069L11.1173 21.0026C11.2654 20.4841 11.1099 19.9368 10.7111 19.5739L7.42455 16.5803L7.53431 16.5309L8.08787 16.2818L7.94555 15.692L7.4304 13.5579L9.16389 13.9318L9.85319 14.0803L10.0273 13.3973L10.068 13.2381L11.1165 14.3321C11.3126 14.5366 11.5746 14.6493 11.8545 14.6493C12.1534 14.6493 12.4377 14.5198 12.6342 14.294C12.8277 14.0716 12.9148 13.7748 12.8734 13.48L12.3971 10.0759L12.4051 10.0796C12.5866 10.163 12.7794 10.2054 12.9784 10.2054C13.4877 10.2054 13.9524 9.9259 14.1909 9.47588L14.9929 7.96338M14.9925 6.40186L13.5441 9.1338C13.4296 9.34966 13.2082 9.47442 12.9781 9.47442C12.8884 9.47442 12.7973 9.4554 12.7106 9.41552L11.4864 8.85208L12.1486 13.582C12.1761 13.7778 12.0191 13.9183 11.8541 13.9183C11.7806 13.9183 11.7056 13.8901 11.6445 13.8264L9.68416 11.7809L9.31792 13.2173L6.44548 12.5978L7.23393 15.8647L6.10742 16.3714L10.2183 20.1157C10.4086 20.2891 10.4843 20.5551 10.4133 20.8025L10.0782 21.9754L14.1704 21.4482C14.1891 21.4456 14.2078 21.4446 14.2257 21.4446C14.4628 21.4446 14.6596 21.6418 14.6516 21.8858L14.4994 23.5977H15.485L15.3328 21.8858C15.3248 21.6414 15.5216 21.4446 15.7587 21.4446C15.777 21.4446 15.7953 21.4456 15.8139 21.4482L19.9062 21.9754L19.571 20.8025C19.5004 20.5551 19.5758 20.2888 19.766 20.1157L23.8769 16.3714L22.7504 15.8647L23.5389 12.5978L20.6664 13.2173L20.3002 11.7809L18.3399 13.8264C18.2788 13.8901 18.2038 13.9183 18.1302 13.9183C17.9652 13.9183 17.8086 13.7778 17.8357 13.582L18.4979 8.85208L17.2737 9.41552C17.187 9.4554 17.0963 9.47442 17.0063 9.47442C16.7762 9.47442 16.5548 9.35003 16.4403 9.1338L14.9925 6.40186Z" fill="white"/>
</svg>
