<svg width="235" height="70" viewBox="0 0 235 70" fill="none" xmlns="http://www.w3.org/2000/svg">
<path fill-rule="evenodd" clip-rule="evenodd" d="M38.5209 33.8223L33.5534 37.7937L37.0962 41.7988L37.8527 37.4785H37.8695L38.5167 33.8223H38.5209ZM144.275 50.0821L146.485 51.3596C163.628 51.3596 180.774 51.3596 197.916 51.3596L199.572 41.9333H199.698L203.67 51.3596H229.537L235 20.5211C233.601 19.5419 232.432 18.693 231.092 17.6423H218.917L218.396 20.5799C217.929 20.1933 217.37 19.7982 216.95 19.5461C215.588 18.7224 213.966 18.2685 212.167 18.0248C210.465 17.7138 208.532 17.6423 206.481 17.6423H187.305C186.237 23.568 185.195 29.4432 184.149 35.352C182.245 29.4516 180.459 23.3957 178.332 17.6087H105.926C101.526 17.6087 97.9244 18.2265 95.0834 19.8655L95.2389 18.9956L93.1628 17.6465H78.8615L76.7308 29.8382L68.5567 17.6423H44.2406L41.6854 17.6465H27.0184L21.4374 22.0634L21.7316 20.4034C20.4582 19.5125 19.21 18.6425 17.9408 17.7516L17.8021 17.6465H5.62306C3.85377 28.2454 1.87435 38.8149 0 49.3928L0.0924568 49.4391C1.37424 50.0779 2.65603 50.7209 3.94202 51.3596H16.2346L17.3357 45.2239L19.2268 43.7109L25.8627 51.4269C38.4074 51.3554 50.9437 51.3596 63.4884 51.3596L65.5435 39.7227L72.1583 49.25L73.5578 51.347C78.8699 51.347 84.1945 51.3596 89.515 51.3596L90.3345 46.7368C90.7085 47.2873 91.1372 47.7875 91.6163 48.2455C94.3648 50.8764 98.5295 51.7547 103.728 51.7547H107.712C110.074 51.7547 112.276 51.4773 114.314 50.7713C114.857 50.5822 115.382 50.3678 115.89 50.1199L115.92 51.3596H137.273L138.929 41.9333H145.17C146.817 41.9333 148.414 41.8996 149.94 41.7441L144.275 50.0821ZM161.867 37.3608H168.267L166.536 31.9437L161.871 37.3608H161.867Z" fill="black"/>
<path d="M6.91744 18.8359L2.02563 46.4384H11.4899L12.3976 41.3911L17.3272 37.4491L25.2911 46.4384H37.5164L24.5431 31.7714L40.8281 18.8359H27.4218L14.5661 29.0103L16.3817 18.8359H6.91744Z" fill="white"/>
<path d="M52.145 18.8359H42.6808L39.6045 36.1883H49.0687L52.145 18.8359ZM37.7932 46.4384H58.7305L61.6891 29.6785L73.3218 46.4384H84.7571L89.6489 18.8359H80.1847L77.1504 36.0286L65.1983 18.8359H54.1581L50.6489 38.5544H39.1759L37.7974 46.4426L37.7932 46.4384Z" fill="white"/>
<path d="M100.968 46.8335H104.952C109.209 46.8335 112.76 45.8879 115.399 42.9293L115.479 46.4384H121.392L123.599 33.9778L123.994 31.6916H106.523L105.733 36.1883H113.542C112.634 37.8441 111.176 38.5544 108.377 38.5544H102.464C98.1645 38.5544 97.1811 36.9784 97.9291 32.6413C98.6772 28.422 100.215 26.4888 104.515 26.4888H132.97V18.8359H105.935C96.7062 18.8359 90.3981 21.597 88.4649 32.6371C86.4519 43.9925 91.7387 46.8335 100.963 46.8335H100.968Z" fill="white"/>
<path d="M142.408 37.0162C149.309 37.0162 155.184 36.4657 156.685 27.905C158.143 19.6259 152.743 18.8359 145.842 18.8359H127.939L126.518 26.4846H144.089C144.228 26.493 144.363 26.5056 144.489 26.5266C147.657 27.0393 147.388 31.4562 143.337 31.5907H125.766L123.047 46.4384H132.511L134.167 37.0162H142.408ZM148.204 46.4384H183.3L174.39 18.8359H155.67C158.036 19.979 159.446 22.2273 158.656 26.7241H167.094L170.881 38.5544H153.528L148.204 46.4426V46.4384Z" fill="#F80000"/>
<path d="M183.696 46.4384H193.16L194.816 37.0162H200.023L204.204 46.4384H224.788L229.676 18.8359H220.212L216.703 38.5544H210.55L209.642 36.5035C213.467 35.7134 216.345 33.5449 217.333 27.905C218.791 19.6259 213.391 18.8359 206.49 18.8359H188.587L187.167 26.7241H206.885C207.516 26.7241 207.991 27.2746 207.873 27.905C207.755 28.5354 207.125 29.086 206.495 29.086H186.776L183.7 46.4384H183.696Z" fill="#F80000"/>
<path fill-rule="evenodd" clip-rule="evenodd" d="M39.1724 38.5544H48.9056L37.7939 46.4384L39.1724 38.5544Z" fill="#F80000"/>
<path fill-rule="evenodd" clip-rule="evenodd" d="M114.076 8.94783C114.089 8.94038 114.101 8.93106 114.114 8.92361L124.517 2.05342L127.601 4.64534C128.838 5.68696 130.023 6.7882 131.24 7.85032C131.676 8.23044 132.112 8.6087 132.55 8.98696L146.281 0L147.348 1.55777L145.237 14.9143H103.427L102.112 13.4367L104.495 0.115527L111.259 6.47143C112.207 7.28572 113.143 8.11491 114.075 8.94783H114.076Z" fill="black"/>
<path fill-rule="evenodd" clip-rule="evenodd" d="M113.985 10.2839C114.22 10.1217 114.456 9.96335 114.695 9.80683L124.44 3.37267L126.92 5.45776C128.159 6.50124 129.33 7.58944 130.545 8.64969C131.182 9.20497 131.821 9.75652 132.462 10.3099L144.82 2.22112L143.038 12.382H103.375L105.194 2.22112L110.555 7.25962C111.715 8.25652 112.848 9.27019 113.985 10.2839Z" fill="white"/>
<path d="M84.7081 69.3524H80.067L82.0441 56.8869H91.879C96.0844 56.8869 97.3745 58.4954 97.3745 60.6567C97.3745 62.9353 96.319 65.4485 91.2591 65.4485H85.328L84.7081 69.3524ZM85.8139 62.3322H90.7732C92.0298 62.3322 92.499 61.7625 92.499 61.0086C92.499 60.3384 92.0298 60.0033 91.1083 60.0033H86.1825L85.8139 62.3322ZM107.765 64.2254L106.308 59.9195L103.711 64.2254H107.765ZM109.491 69.3524L108.804 67.3418H101.851L100.645 69.3524H95.9032L103.677 56.8869H109.893L114.467 69.3524H109.491ZM122.38 62.0641H127.759C128.898 62.0641 129.317 61.4442 129.317 60.8578C129.317 60.3049 128.998 59.9195 128.043 59.9195H122.732L122.38 62.0641ZM121.911 65.0799L121.241 69.3524H116.6L118.577 56.8869H129.685C132.936 56.8869 134.259 58.0765 134.259 59.8692C134.259 61.8295 132.567 62.7678 131.294 63.0694C132.617 63.4715 133.623 64.3595 133.355 65.9847L133.036 67.945C132.902 68.7324 133.003 69.0675 133.053 69.2686L133.036 69.3524H128.295C128.228 69.2351 128.211 69.0508 128.278 68.6319L128.496 67.258C128.714 65.8339 128.177 65.0799 126.318 65.0799H121.911ZM140.296 69.3524L141.737 60.2881H136.543L137.079 56.8869H152.125L151.572 60.2881H146.395L144.954 69.3524H140.296ZM154.963 56.8869H160.106L165.954 64.0914L167.093 56.8869H171.684L169.707 69.3524H165.116L158.799 61.6955L157.593 69.3524H152.986L154.963 56.8869ZM174.914 56.8869H188.318L187.832 59.9363H179.003L178.768 61.4944H187.43L186.944 64.527H178.282L177.997 66.236H186.961L186.475 69.3524H172.937L174.914 56.8869ZM195.25 62.0641H200.628C201.767 62.0641 202.186 61.4442 202.186 60.8578C202.186 60.3049 201.868 59.9195 200.913 59.9195H195.602L195.25 62.0641ZM194.781 65.0799L194.111 69.3524H189.469L191.447 56.8869H202.555C205.805 56.8869 207.129 58.0765 207.129 59.8692C207.129 61.8295 205.437 62.7678 204.163 63.0694C205.487 63.4715 206.492 64.3595 206.224 65.9847L205.906 67.945C205.772 68.7324 205.872 69.0675 205.923 69.2686L205.906 69.3524H201.164C201.097 69.2351 201.08 69.0508 201.147 68.6319L201.365 67.258C201.583 65.8339 201.047 65.0799 199.187 65.0799H194.781ZM217.13 69.5869H215.673C208.988 69.5869 208.535 66.6716 208.736 64.9962H213.83C213.83 65.7166 214.031 66.7554 216.678 66.7554H216.812C219.66 66.7554 219.912 66.0182 219.912 65.482C219.912 64.8789 219.56 64.527 217.298 64.4432L215.22 64.3595C210.797 64.2254 209.624 62.5667 209.624 60.6567C209.624 60.3886 209.641 60.1206 209.691 59.9363C210.01 58.0597 211.635 56.6691 217.164 56.6691H218.588C224.821 56.6691 225.709 58.7969 225.491 60.7405H220.465C220.414 60.2546 220.297 59.4001 217.65 59.4001H217.499C214.952 59.4001 214.701 59.886 214.701 60.3719C214.701 60.8243 214.969 61.2599 217.114 61.3101L219.141 61.3604C223.615 61.4944 225.189 62.5835 225.189 64.8789C225.189 65.1972 225.173 65.5155 225.122 65.7334C224.804 67.6936 223.564 69.5869 217.13 69.5869Z" fill="white"/>
</svg>
