<svg width="25" height="29" viewBox="0 0 25 29" fill="none" xmlns="http://www.w3.org/2000/svg">
<path d="M19.1209 19.1962L24.8755 13.9548L23.2986 13.2454L24.4023 8.67237L20.3813 9.53946L19.8687 7.52873L17.1245 10.3922C16.848 10.6811 16.3635 10.446 16.4188 10.0501L17.3458 3.4289L15.6321 4.21762C15.2003 4.41634 14.6882 4.24323 14.4654 3.82326L12.4378 0L10.4101 3.82429C10.1873 4.24426 9.67518 4.41736 9.24343 4.21865L7.52975 3.42992L8.45676 10.0511C8.51207 10.447 8.02757 10.6821 7.751 10.3932L5.00686 7.52975L4.49419 9.54048L0.473234 8.6734L1.57693 13.2465L0 13.9558L5.75461 19.1972C6.02093 19.44 6.12695 19.8123 6.02759 20.1585L5.55845 21.8005L11.2869 21.0625C11.6526 21.0154 11.9732 21.3068 11.9609 21.6756L11.7479 28.0294H13.1276L12.9146 21.6756C12.9023 21.3073 13.2229 21.0154 13.5886 21.0625L19.3171 21.8005L18.8479 20.1585C18.7491 19.8123 18.8546 19.4395 19.1209 19.1972V19.1962Z" fill="#ED1E24"/>
</svg>
